Coordinates
version=1
nRows=6
nColumns=63
inDegrees=yes

Units are S.I. units (second, meters, Newtons, ...)
If the header above contains a line with 'inDegrees', this indicates whether rotational values are in degrees (yes) or radians (no).

endheader
time	pelvis_tilt	pelvis_list	pelvis_rotation	pelvis_tx	pelvis_ty	pelvis_tz	hip_flexion_r	hip_adduction_r	hip_rotation_r	knee_angle_r	knee_angle_r_beta	ankle_angle_r	subtalar_angle_r	mtp_angle_r	hip_flexion_l	hip_adduction_l	hip_rotation_l	knee_angle_l	knee_angle_l_beta	ankle_angle_l	subtalar_angle_l	mtp_angle_l	L5_S1_Flex_Ext	L5_S1_Lat_Bending	L5_S1_axial_rotation	L4_L5_Flex_Ext	L4_L5_Lat_Bending	L4_L5_axial_rotation	L3_L4_Flex_Ext	L3_L4_Lat_Bending	L3_L4_axial_rotation	L2_L3_Flex_Ext	L2_L3_Lat_Bending	L2_L3_axial_rotation	L1_L2_Flex_Ext	L1_L2_Lat_Bending	L1_L2_axial_rotation	L1_T12_Flex_Ext	L1_T12_Lat_Bending	L1_T12_axial_rotation	Abs_r3	Abs_r2	Abs_r1	Abs_t1	Abs_t2	neck_flexion	neck_bending	neck_rotation	arm_flex_r	arm_add_r	arm_rot_r	elbow_flex_r	pro_sup_r	wrist_flex_r	wrist_dev_r	arm_flex_l	arm_add_l	arm_rot_l	elbow_flex_l	pro_sup_l	wrist_flex_l	wrist_dev_l
      1.74576271	     -3.36673199	    -25.07524107	     87.24068598	      0.17565943	      0.85943337	      0.49073580	     44.64806038	      1.81574822	      7.92880710	     41.73383441	      0.72839282	     42.06278686	    -10.33974102	      0.00000000	     43.78748113	     -0.04435444	      1.54865982	     40.47777854	      0.70647051	     38.82113888	    -13.75263562	      0.00000000	      0.21431019	     -0.11438931	     -0.28028782	      0.39799546	     -0.15213778	     -0.29780581	      0.35209021	     -0.27812617	     -0.29780581	      0.24493512	     -0.27812617	     -0.24525184	      0.19900844	     -0.23326268	     -0.22773385	      0.12245684	     -0.17718904	     -0.21021586	      1.53079627	     -1.29399475	     -1.55887677	      0.00000000	      0.00000000	     27.93371013	      6.55100726	      9.99410003	     22.08823512	      7.78834033	    143.03136345	      4.75351971	      2.83527108	      0.05607437	    -15.15050172	      3.29744715	     -5.32322618	     24.88782326	     40.44898017	     86.87625281	     -7.51897262	    -11.25922977
      1.76271186	     -3.27713818	    -25.30961596	     87.52048601	      0.17682514	      0.85591608	      0.49385646	     45.67552970	      2.00084564	      7.95364499	     42.76853541	      0.74645176	     42.66414915	    -10.40834165	      0.00000000	     44.54014119	     -0.09668572	      1.69513251	     41.09798708	      0.71729519	     39.32680961	    -13.72629941	      0.00000000	      0.18196931	     -0.14740070	     -0.19528967	      0.33793520	     -0.19604293	     -0.20749527	      0.29895738	     -0.35839005	     -0.20749527	      0.20797272	     -0.35839005	     -0.17087846	      0.16897670	     -0.30057950	     -0.15867286	      0.10397726	     -0.22832368	     -0.14646725	      1.29978857	     -1.66742615	     -1.08614255	      0.00000000	      0.00000000	     27.98962812	      7.01340633	      9.51611878	     22.44623599	      7.88654636	    142.79173438	      4.47471577	      2.63578395	      0.10391879	    -15.49192608	      3.63873719	     -5.26597368	     24.86841941	     40.46428437	     86.91654201	     -7.44869244	    -11.35928677
      1.77966102	     -4.13532067	    -26.07862857	     86.91091201	      0.17896261	      0.85146576	      0.49715524	     47.45259645	      1.77423690	      8.47980271	     43.99051930	      0.76777940	     43.27534855	    -10.02888018	      0.00000000	     45.77473169	     -0.00825413	      0.54304377	     41.56278879	      0.72540751	     40.00254669	    -13.24135707	      0.00000000	      0.25277847	     -0.30461722	      0.06064286	      0.46943490	     -0.40514090	      0.06443304	      0.41528975	     -0.74064631	      0.06443304	      0.28890052	     -0.74064631	      0.05306251	      0.23473009	     -0.62117543	      0.04927233	      0.14443762	     -0.47185207	      0.04548215	      1.80557135	     -3.44589091	      0.33727741	      0.00000000	      0.00000000	     28.10486217	      7.10805185	      6.27104721	     22.39872967	      8.14409393	    140.94792287	      4.05829961	      2.42447042	      0.62831264	    -16.41727851	      4.24962524	     -5.78711608	     26.32733594	     40.04517451	     87.17552333	     -7.32328142	    -11.99032087
      1.79661017	     -4.08934171	    -26.43054189	     87.06375949	      0.17967497	      0.84733453	      0.50005158	     48.59737915	      1.94044293	      8.53112814	     45.09695282	      0.78709031	     43.78231986	    -10.13078191	      0.00000000	     46.73979466	     -0.01740002	      0.70290436	     42.29787743	      0.73823723	     40.88676847	    -13.28684237	      0.00000000	      0.24309247	     -0.33287782	      0.09763710	      0.45144702	     -0.44272751	      0.10373942	      0.39937661	     -0.80935914	      0.10373942	      0.27783038	     -0.80935914	      0.08543247	      0.22573566	     -0.67880446	      0.07933015	      0.13890304	     -0.51562775	      0.07322783	      1.73638518	     -3.76558052	      0.54302828	      0.00000000	      0.00000000	     28.18421571	      7.60460672	      5.89332347	     22.78771963	      8.16826314	    140.83236934	      4.04844899	      2.39246039	      0.39054442	    -16.34006986	      4.78608451	     -5.42037600	     26.74499177	     39.04365004	     87.39019500	     -7.46210676	    -11.80095542
      1.81355932	     -3.92456126	    -27.44357748	     87.11251325	      0.18033656	      0.84235397	      0.50337318	     50.43220209	      2.17441525	      8.23539968	     46.14021419	      0.80529866	     44.11911744	     -9.95871281	      0.00000000	     48.51845273	     -0.28578438	      0.70891180	     43.23810731	      0.75464733	     41.69138198	    -13.16977108	      0.00000000	      0.33901999	     -0.34355202	      0.15295292	      0.62959402	     -0.45692419	      0.16251248	      0.55697594	     -0.83531238	      0.16251248	      0.38746594	     -0.83531238	      0.13383381	      0.31481396	     -0.70057128	      0.12427425	      0.19371602	     -0.53216208	      0.11471469	      2.42158587	     -3.88632916	      0.85067826	      0.00000000	      0.00000000	     28.25922752	      8.13819007	      5.20426187	     22.92380058	      8.14046525	    140.78291215	      4.30134851	      2.48912736	     -0.99147844	    -16.08942309	      5.66204075	     -5.34249491	     29.01055142	     37.47268911	     87.84058334	     -8.00278437	    -12.20827159
      1.83050847	     -3.39954802	    -27.93139250	     87.27707801	      0.18026305	      0.83797827	      0.50619397	     51.59046742	      2.59175365	      7.85600976	     47.05432647	      0.82125292	     44.62428886	     -9.53150634	      0.00000000	     49.68638603	     -0.67898436	      1.01957159	     44.16065065	      0.77074875	     42.68565986	    -13.09616428	      0.00000000	      0.34177345	     -0.29321638	      0.13116696	      0.63470747	     -0.38997779	      0.13936489	      0.56149960	     -0.71292631	      0.13936489	      0.39061287	     -0.71292631	      0.11477109	      0.31737082	     -0.59792685	      0.10657315	      0.19528935	     -0.45419218	      0.09837522	      2.44125356	     -3.31692236	      0.72951126	      0.00000000	      0.00000000	     28.30378406	      8.36794849	      5.66443923	     23.27444347	      7.97423967	    141.61165434	      4.96643128	      2.86092315	     -3.66147704	    -15.54425258	      7.11276445	     -5.06764692	     33.00023593	     35.09103351	     87.76505698	     -9.98886148	    -12.85833426
